HIERARCHY
ROOT RootJoint
{
    OFFSET   0.000000   0.000000   0.000000
    CHANNELS 6 Xposition Yposition Zposition Xrotation Yrotation Zrotation
    JOINT pelvis_lowerback
    {
        OFFSET   0.000000   0.093605   0.000000
        CHANNELS 3 Xrotation Yrotation Zrotation
        JOINT lowerback_torso
        {
            OFFSET   0.000000   0.100000   0.000000
            CHANNELS 3 Xrotation Yrotation Zrotation
            JOINT torso_head
            {
                OFFSET   0.000000   0.282350   0.000000
                CHANNELS 3 Xrotation Yrotation Zrotation
                End Site
                {
                    OFFSET   0.000000   0.192650   0.000000
                }
            }
            JOINT rTorso_Clavicle
            {
                OFFSET  -0.001000   0.157500   0.000000
                CHANNELS 3 Xrotation Yrotation Zrotation
                JOINT rShoulder
                {
                    OFFSET  -0.117647   0.000000   0.000000
                    CHANNELS 3 Xrotation Yrotation Zrotation
                    JOINT rElbow
                    {
                        OFFSET  -0.245000   0.000000   0.000000
                        CHANNELS 3 Xrotation Yrotation Zrotation
                        JOINT rWrist
                        {
                            OFFSET  -0.240000   0.000000   0.000000
                            CHANNELS 3 Xrotation Yrotation Zrotation
                            End Site
                            {
                                OFFSET  -0.116353  -0.002500   0.000000
                            }
                        }
                    }
                }
            }
            JOINT lTorso_Clavicle
            {
                OFFSET   0.001000   0.157500   0.000000
                CHANNELS 3 Xrotation Yrotation Zrotation
                JOINT lShoulder
                {
                    OFFSET   0.117647   0.000000   0.000000
                    CHANNELS 3 Xrotation Yrotation Zrotation
                    JOINT lElbow
                    {
                        OFFSET   0.245000   0.000000   0.000000
                        CHANNELS 3 Xrotation Yrotation Zrotation
                        JOINT lWrist
                        {
                            OFFSET   0.240000   0.000000   0.000000
                            CHANNELS 3 Xrotation Yrotation Zrotation
                            End Site
                            {
                                OFFSET   0.116353  -0.002500   0.000000
                            }
                        }
                    }
                }
            }
        }
    }
    JOINT rHip
    {
        OFFSET  -0.100000  -0.051395   0.000000
        CHANNELS 3 Xrotation Yrotation Zrotation
        JOINT rKnee
        {
            OFFSET   0.000000  -0.410000   0.000000
            CHANNELS 3 Xrotation Yrotation Zrotation
            JOINT rAnkle
            {
                OFFSET   0.000000  -0.390000   0.000000
                CHANNELS 3 Xrotation Yrotation Zrotation
                JOINT rToeJoint
                {
                    OFFSET   0.000000  -0.050000   0.130000
                    CHANNELS 3 Xrotation Yrotation Zrotation
                    End Site
                    {
                        OFFSET  -0.010000   0.002000   0.060000
                    }
                }
            }
        }
    }
    JOINT lHip
    {
        OFFSET   0.100000  -0.051395   0.000000
        CHANNELS 3 Xrotation Yrotation Zrotation
        JOINT lKnee
        {
            OFFSET   0.000000  -0.410000   0.000000
            CHANNELS 3 Xrotation Yrotation Zrotation
            JOINT lAnkle
            {
                OFFSET   0.000000  -0.390000   0.000000
                CHANNELS 3 Xrotation Yrotation Zrotation
                JOINT lToeJoint
                {
                    OFFSET   0.000000  -0.050000   0.130000
                    CHANNELS 3 Xrotation Yrotation Zrotation
                    End Site
                    {
                        OFFSET   0.010000   0.002000   0.060000
                    }
                }
            }
        }
    }
}
MOTION
Frames: 10
Frame Time:   0.008333
 -2.376719   0.925631   3.975860   0.000000   0.000000   0.000000   0.000000   0.000000   0.000000   0.000000   0.000000   0.000000   0.000000   0.000000   0.000000   0.000000   0.000000   0.000000   0.000000   0.000000   0.000000   0.000000   0.000000   0.000000   0.000000   0.000000   0.000000   0.000000   0.000000   0.000000   0.000000   0.000000   0.000000   0.000000   0.000000   0.000000   0.000000   0.000000   0.000000   0.000000   0.000000   0.000000   0.000000   0.000000   0.000000   0.000000   0.000000   0.000000   0.000000   0.000000   0.000000   0.000000   0.000000   0.000000   0.000000   0.000000   0.000000   0.000000   0.000000   0.000000   0.000000   0.000000   0.000000
 -2.375993   0.925976   3.974092   0.236337  -1.427217   0.784145   0.410493   0.742221  -0.635606  -0.287377   0.119836  -0.499495   0.172029  -0.426119   0.436406   0.025904   0.071934   0.413672   0.880376   0.239470   2.211812   0.011197   0.559661  -0.006162   0.076119  -0.056100  -2.770347   0.174113   0.833967  -0.080295  -1.297235   0.401658  -1.530717   0.007136  -0.419506  -0.002822  -0.026486  -0.591705   2.805612  -1.960777   0.507140  -0.961755   3.632563   0.005786  -0.030295  -2.209476   0.282329   0.545337  -0.224475   0.000612   0.001297  -0.514530   0.055757  -0.953023   1.258051   0.001792  -0.015159  -1.418186   0.507788   0.458490   0.424131  -0.000978  -0.003205
 -2.375028   0.926490   3.972278   0.367155  -3.179987   1.672007   0.967957   1.529272  -1.328399  -0.395469   0.389230  -1.083382   0.398370  -0.855864   0.826859   0.049558   0.157262   1.468501   1.740315   0.534514   4.951641   0.025493   1.102696  -0.011621   0.195381   0.067593  -4.867237   0.345368   1.857410  -0.786580  -2.501474   0.977269  -3.436515   0.014587  -0.765771  -0.003781  -0.057857  -1.120447   5.044111  -3.995933   0.990444  -2.029317   7.511696   0.008383  -0.071590  -4.258860   0.520705   1.066888  -0.432849   0.000898   0.003098  -0.855874   0.061867  -2.027245   2.615403   0.002919  -0.033149  -2.749329   0.963537   0.896723   0.727960  -0.001366  -0.006013
 -2.373965   0.926805   3.970606   0.460401  -4.987502   2.533982   1.573471   2.299351  -1.999846  -0.408041   0.710665  -1.663608   0.644489  -1.260757   1.182793   0.065259   0.228313   2.895166   2.573970   0.860757   8.018051   0.039125   1.606802  -0.015543   0.321687   0.215201  -6.220832   0.531271   2.912151  -1.906985  -3.599711   1.634244  -5.543273   0.020584  -1.058180  -0.003887  -0.086317  -1.467207   6.539659  -6.003180   1.463741  -3.046924  11.364050   0.006033  -0.109197  -6.171921   0.721701   1.560329  -0.616949   0.001014   0.004587  -1.102678   0.054172  -3.070748   3.938604   0.002953  -0.047929  -3.993277   1.375295   1.313148   1.001374  -0.001596  -0.008197
 -2.372873   0.926671   3.969155   0.532839  -6.729577   3.344316   2.193161   3.022560  -2.639687  -0.371610   1.033513  -2.218935   0.893943  -1.638706   1.514196   0.074906   0.281690   4.527004   3.381331   1.218675  11.302106   0.050606   2.072755  -0.017992   0.445688   0.349268  -7.025146   0.732790   3.935399  -3.274931  -4.594723   2.328265  -7.733466   0.024855  -1.313816  -0.003655  -0.118558  -1.685345   7.462102  -7.952963   1.933926  -3.988280  15.177343   0.000065  -0.138634  -7.961323   0.892807   2.024968  -0.793779   0.001057   0.005750  -1.286507   0.042234  -4.054072   5.199297   0.002225  -0.058114  -5.157227   1.749830   1.707872   1.247938  -0.001729  -0.009567
 -2.371799   0.925909   3.967971   0.587519  -8.352679   4.098654   2.806027   3.686340  -3.245387  -0.310709   1.334801  -2.743028   1.139661  -1.990693   1.823991   0.080676   0.316459   6.255890   4.161874   1.608927  14.731739   0.059448   2.503161  -0.019212   0.563435   0.461487  -7.452531   0.947112   4.902251  -4.772862  -5.492730   3.036010  -9.926917   0.027526  -1.542396  -0.003332  -0.154299  -1.824489   7.987236  -9.827213   2.401915  -4.855388  18.963341  -0.007884  -0.159287  -9.634940   1.039012   2.461046  -0.963324   0.001054   0.006547  -1.419670   0.028786  -4.972714   6.392122   0.001113  -0.063969  -6.246695   2.091600   2.081230   1.470208  -0.001791  -0.010204
 -2.370778   0.924392   3.967072   0.624435  -9.836879   4.797399   3.397820   4.288689  -3.814613  -0.240130   1.606059  -3.232510   1.377864  -2.318257   2.113443   0.085186   0.331132   8.010738   4.915057   2.030084  18.258330   0.065649   2.900156  -0.019476   0.672797   0.548028  -7.629327   1.170774   5.806457  -6.319998  -6.301133   3.745081 -12.071098   0.028827  -1.749154  -0.003035  -0.192309  -1.913268   8.250737 -11.615241   2.866612  -5.656278  22.732187  -0.016488  -0.172018 -11.199726   1.164048   2.869436  -1.123898   0.001018   0.006995  -1.508934   0.014340  -5.827587   7.518200  -0.000104  -0.066282  -7.266400   2.404076   2.433825   1.671018  -0.001801  -0.010277
 -2.370035   0.921470   3.966368   0.406445 -11.212134   5.455257   4.238106   4.816937  -4.425297  -0.196782   1.999935  -3.759925   1.564925  -2.617947   2.316513   0.119796   0.420050   9.354942   5.510667   2.291018  21.705242   0.062499   3.145626  -0.017799   0.724627   0.561217  -6.945557   0.965991   6.491706  -7.205733  -7.692869   4.428512 -13.839373   0.038880  -2.379593  -0.009207  -0.360385  -1.284966   7.770964 -13.339458   3.061054  -6.422304  26.708047  -0.030819  -0.190195 -11.595287   1.078832   3.088532  -1.207574   0.000836   0.006866  -1.000998   0.205984  -6.693335   8.227638  -0.000550  -0.060229  -8.291483   2.668168   3.011564   2.010204  -0.002727  -0.010788
 -2.369445   0.917307   3.965807   0.154728 -12.365221   6.048143   5.022681   5.231873  -5.004315  -0.151290   2.302425  -4.233519   1.736438  -2.891049   2.479911   0.144290   0.508262  10.493528   6.050216   2.556876  24.848324   0.058095   3.368091  -0.015967   0.761287   0.506599  -6.265043   0.753002   7.038219  -7.766845  -9.003576   5.013334 -15.294490   0.043266  -3.010399  -0.014074  -0.530321  -0.816686   7.507359 -15.095033   3.246362  -7.106307  30.676975  -0.045103  -0.197075 -11.948549   0.992451   3.289979  -1.187394   0.000629   0.005220  -0.342069   0.369150  -7.523338   8.905429  -0.000697  -0.053744  -9.254685   2.907516   3.553840   2.311183  -0.003230  -0.010393
 -2.368929   0.912007   3.965397  -0.117207 -13.330273   6.575918   5.747098   5.548076  -5.529029  -0.113342   2.515682  -4.641488   1.892687  -3.144796   2.624454   0.163001   0.583330  11.467023   6.540675   2.820257  27.717622   0.053248   3.573467  -0.014109   0.792856   0.432206  -5.729376   0.544728   7.487124  -8.114378 -10.230438   5.530855 -16.517528   0.043779  -3.622442  -0.017570  -0.674744  -0.500321   7.500400 -16.862238   3.445908  -7.714220  34.606541  -0.057502  -0.194876 -12.278654   0.911106   3.477123  -1.163878   0.000454   0.003893   0.420628   0.498989  -8.318856   9.578129  -0.000595  -0.047455 -10.155431   3.123284   4.061878   2.590996  -0.003460  -0.009582
